# xmcd
#
# Track frame offsets:
#	150
#	13873
#	27569
#	41311
#	58759
#	71812
#	88155
#	106820
#	119823
#	134291
#	152825
#	170220
#	187120
#	207524
#	221499
#
# Disc length: 3189 seconds
#
# Revision: 1
# Processed by: cddbd v1.5.2PL0 Copyright (c) Steve Scherf et al.
# Submitted via: audiograbber 1.83.01
#
DISCID=ea0c730f
DTITLE=Various Artist - CB-E8-06
DYEAR=1900
DGENRE=Karaoke
TTITLE0=Hank Williams Jr. - Don't Give Us A Reason
TTITLE1=Forester Sisters, The - Leave It Alone
TTITLE2=Alan Jackson - Wanted
TTITLE3=Tanya Tucker - Some Kind Of Trouble
TTITLE4=Marty Stuart - Hillbilly Rock
TTITLE5=Judds, The - John Deere Tractor
TTITLE6=Travis Tritt - I'm Gonna Be Somebody
TTITLE7=Forester Sisters, The - Too Much Fun
TTITLE8=Randy Travis - Forever Together
TTITLE9=Collin Raye - Little Rock
TTITLE10=Sawyer Brown - Walk, The
TTITLE11=Lorrie Morgan - A Picture Of Me Without You
TTITLE12=Brooks and Dunn - Neon Moon
TTITLE13=Tanya Tucker - Without You What Do I Do With Me
TTITLE14=Alan Jackson - Midnight In Montgomery
EXTD=
EXTT0=
EXTT1=
EXTT2=
EXTT3=
EXTT4=
EXTT5=
EXTT6=
EXTT7=
EXTT8=
EXTT9=
EXTT10=
EXTT11=
EXTT12=
EXTT13=
EXTT14=
PLAYORDER=
